<svg xmlns="http://www.w3.org/2000/svg" width="32" height="32" fill="none"><path fill="#0F805D" d="M25.33 9.33c0-1.46-1.2-2.66-2.66-2.66h-4v2.66h4v3.54l-4.64 5.8h-4.7V12H8a5.33 5.33 0 0 0-5.33 5.33v4h2.66a4 4 0 1 0 8 0h5.98l6.02-7.53V9.33Zm-20 9.34v-1.34c0-1.46 1.2-2.66 2.67-2.66h2.67v4H5.33Zm4 4c-.73 0-1.33-.6-1.33-1.34h2.67c0 .74-.6 1.34-1.34 1.34Z"/><path fill="#0F805D" d="M6.67 8h6.66v2.67H6.67V8Zm18.66 9.33a4 4 0 1 0 0 8 4 4 0 0 0 0-8Zm0 5.34a1.34 1.34 0 0 1 0-2.67c.74 0 1.34.6 1.34 1.33 0 .74-.6 1.34-1.34 1.34Z"/></svg>