<svg xmlns="http://www.w3.org/2000/svg" fill="none" viewBox="0 0 123 50"><path fill="#B22EC8" d="M39.86 28.48c0-4.13-3.01-5.6-3.34-5.75l.01-.29c.11-.66.34-2.47-.05-4.17a4.63 4.63 0 0 0-.92-1.84c-2.28-4.9-8.2-6.44-15.16-6.44-7.02 0-12.98 1.57-15.22 6.57a4.6 4.6 0 0 0-.82 1.71 11.62 11.62 0 0 0-.11 3.76l.04.72A6.12 6.12 0 0 0 1 28.48c0 4.37 2.84 5.61 2.84 5.61s.03 5.16 3.22 7.95a10.93 10.93 0 0 0 6.52 2.8s1.74 3.67 6.85 3.67c5.11 0 6.85-3.67 6.85-3.67s3.46-.51 6.52-2.8c3.06-2.29 2.98-7.95 2.98-7.95s3.08-1.23 3.08-5.61Z" class="logo-body"/><path fill="#0F805D" d="M20.9 10.98c1.48 2.92 12.41 8.58 15.96-8.02-16.01-6.52-17.45 5.1-15.96 8.02Z" class="logo-leafs"/><path fill="#0F805D" d="M4 2.96c3.56 16.61 14.48 10.95 15.96 8.02C21.44 8.06 20.01-3.56 4 2.96Z" class="logo-leafs"/><path fill="#6A107A" d="M20.92 48.5s4.37-3.06 4.09-10.09c1.88-1.96 2.46-4.59.76-7.78 2.89-4.11 2.59-8.56-.87-11.94 1.42-2.05.68-3.83-.93-5.17 0 0 4.63 2.27 8.17-.98 0 0 7.45 5.36 4.34 10.17 0 0 8.23 5.56.29 11.38 0 0 1.16 8.86-9.3 10.71.01 0-2.75 3.12-6.55 3.7Z" class="logo-shadow"/><path fill="#000" d="M20.43 49.51c-4.51 0-6.69-2.57-7.44-3.71a12.26 12.26 0 0 1-6.58-3c-2.86-2.5-3.42-6.6-3.53-8.11C1.89 34.01 0 32.24 0 28.48a7.16 7.16 0 0 1 3.27-6.3c-.12-.92-.23-2.56.12-4.13.57-2.51 2.99-3.99 3.09-4.05a1 1 0 0 1 1.37.34 1 1 0 0 1-.34 1.37c-.02.01-1.8 1.11-2.17 2.78-.42 1.88 0 4 0 4.03a1 1 0 0 1-.6 1.12C4.65 23.69 2 24.87 2 28.48s2.16 4.66 2.25 4.7c.35.16.59.52.59.9 0 .05.08 4.75 2.87 7.2a9.9 9.9 0 0 0 5.87 2.55c.39 0 .74.22.9.57.06.12 1.57 3.1 5.94 3.1s5.88-2.98 5.95-3.11c.14-.29.43-.51.75-.56.03 0 3.26-.51 6.07-2.61 2.61-1.95 2.58-7.08 2.58-7.13a.98.98 0 0 1 .63-.94c.09-.04 2.45-1.09 2.45-4.68 0-3.61-2.65-4.79-2.76-4.84a1 1 0 0 1-.59-1.12c0-.02.43-2.15 0-4.03-.38-1.66-2.15-2.77-2.17-2.78a1 1 0 1 1 1.03-1.71c.1.06 2.52 1.54 3.09 4.05.36 1.57.24 3.21.12 4.13a7.16 7.16 0 0 1 3.28 6.3c0 3.78-2.04 5.55-3.09 6.21-.07 1.63-.54 6.03-3.37 8.15a17.26 17.26 0 0 1-6.49 2.9c-.7 1.11-2.88 3.78-7.47 3.78Zm6.87-7.1c-.16 0-.33-.04-.48-.12a4.92 4.92 0 0 1-2.06-2 7.7 7.7 0 0 1-4.13 1.13h-.2c-1.6 0-3.08-.43-4.2-1.17a4.8 4.8 0 0 1-1.73 1.84 1 1 0 1 1-1.07-1.68c.76-.49 1.2-1.13 1.2-1.78 0-.1.01-.2.04-.29a1 1 0 0 1 1.83-.57c.66.99 2.25 1.65 3.94 1.65h.2c1.64 0 3.16-.61 3.87-1.55a1 1 0 0 1 1.4-.2c.2.15.32.35.37.58a1 1 0 0 1 .08.38c0 .71.52 1.41 1.43 1.92a1 1 0 0 1 .39 1.36c-.19.31-.53.5-.88.5Zm-20.7-8.1a1 1 0 0 1-.96-.73c-.15-.53.16-1.08.69-1.24a3.4 3.4 0 0 0 2.56-3.22v-.05a5.13 5.13 0 0 1-.69-2.58 1 1 0 0 1 1-1 1 1 0 0 1 1 1c0 1.85 1.62 3.36 3.62 3.36H14c2 0 3.62-1.51 3.62-3.36a1 1 0 0 1 1-1 1 1 0 0 1 1 1A5.5 5.5 0 0 1 14 31.85h-.18a5.75 5.75 0 0 1-3.24-.99 5.58 5.58 0 0 1-3.98 3.45Zm27.85-.08c-.11 0-.22-.02-.33-.05a5.51 5.51 0 0 1-3.4-3.3 5.8 5.8 0 0 1-3.25.99h-.18a5.5 5.5 0 0 1-5.62-5.36 1 1 0 0 1 1-1 1 1 0 0 1 1 1c0 1.85 1.62 3.36 3.62 3.36h.18c2 0 3.62-1.51 3.62-3.36a1 1 0 0 1 1-1 1 1 0 0 1 1 1c0 .92-.25 1.79-.68 2.55v.07c0 1.4.95 2.67 2.36 3.16a1 1 0 0 1 .62 1.27.99.99 0 0 1-.94.67Zm-.81-10.45a5.65 5.65 0 0 1-5.62-5.67 1 1 0 0 1 1-1 1 1 0 0 1 1 1 3.65 3.65 0 0 0 3.62 3.67 1 1 0 0 1 1 1 1 1 0 0 1-1 1Zm-27.04 0a1 1 0 0 1-1-1 1 1 0 0 1 1-1c2 0 3.62-1.65 3.62-3.67a1 1 0 0 1 1-1 1 1 0 0 1 1 1 5.65 5.65 0 0 1-5.62 5.67Zm14.11-2.34h-.18c-3.09 0-5.5-2.51-5.6-2.62a1 1 0 1 1 1.45-1.37c.04.04 1.94 1.99 4.14 1.99h.18c2.2 0 4.12-1.97 4.14-1.99a1 1 0 1 1 1.45 1.37c-.09.11-2.5 2.62-5.58 2.62Zm6.77-6.12a9.5 9.5 0 0 1-7.05-3.23 9.45 9.45 0 0 1-8.1 3.16C9.18 14.84 5 12.41 3.02 3.17c-.1-.47.15-.95.6-1.14 9.01-3.67 13.44-1.69 15.57.62.51.55.92 1.16 1.24 1.8.32-.64.73-1.25 1.24-1.8 2.13-2.31 6.55-4.3 15.57-.62a1 1 0 0 1 .6 1.14c-1.98 9.24-6.16 11.67-9.32 12.08-.35.05-.69.07-1.04.07Zm-5.3-4.25a7.63 7.63 0 0 0 6.09 2.2c3.45-.45 6.01-3.8 7.43-9.7-5.89-2.24-10.22-2.1-12.56.44a6.97 6.97 0 0 0-1.69 4.98c1.48-1.3 3.67-2.5 6.54-3.61a1 1 0 0 1 1.29.58 1 1 0 0 1-.58 1.29c-3.07 1.19-5.31 2.5-6.52 3.82ZM5.16 3.57c1.42 5.9 3.98 9.25 7.43 9.7a7.63 7.63 0 0 0 6.09-2.2c-1.21-1.33-3.45-2.63-6.53-3.82a1 1 0 0 1 .71-1.87c2.87 1.1 5.06 2.31 6.54 3.61a6.97 6.97 0 0 0-1.69-4.98c-2.33-2.53-6.66-2.68-12.55-.44Z" class="logo-stroke"/><g fill="#0F805D" class="logo-text"><path d="M67.53 37.72c-.61 0-.97-.31-1.08-.92-.13-1.02-.2-1.98-.2-2.88-.08-2.06-.14-4.2-.2-6.4l-.04-4.88c-.58.26-1.05.63-1.4 1.11a8.9 8.9 0 0 0-.92 1.77 11.2 11.2 0 0 0-.72 3.88v1l-.04 1.48c-.02.82-.1 1.73-.24 2.71a3.8 3.8 0 0 1-2 3c-.18.11-.42.16-.72.16-.34 0-.64-.08-.88-.23-.21-.2-.28-.45-.2-.77a.73.73 0 0 1 .24-.4c.1-.08.26-.16.44-.23.22-.09.38-.16.48-.24.4-.38.6-.89.6-1.53L60.7 31c.06-1.3.12-2.3.2-3a11.81 11.81 0 0 1 1.36-4.11 9 9 0 0 1 .88-1.48 6.4 6.4 0 0 1-2.96-2.6c-.53-1.05-.8-2.57-.8-4.57 0-1.57.28-3.12.84-4.63.56-1.5 1.48-2.45 2.76-2.84l1.76-.6c.24-.11.51-.17.8-.17.56 0 1.2.24 1.92.72.46.27.68.71.68 1.33a77.59 77.59 0 0 0-.24 5.08V23a188.26 188.26 0 0 0 .2 9.31c.06.86.1 1.56.12 2.13l.12 2.2v.23c0 .35-.05.58-.16.69-.1.1-.32.16-.64.16ZM65.85 8.68l-.92.31c-.45.16-.85.35-1.2.56-.4.2-.77.6-1.12 1.2a8.95 8.95 0 0 0-.76 1.88 4.8 4.8 0 0 0-.24 1.52l.08 1.76c0 .83.02 1.48.04 1.96.03.75.24 1.38.64 1.88.43.48 1.02.82 1.76 1 .3.09.63.2 1 .36l.88.32-.16-12.75ZM73.49 37.84l-.16-.57c-.05-.26-.07-.49-.04-.68.05-3.09.13-5.4.24-6.92.03-.56.04-1.38.04-2.48 0-1.97-.1-4.36-.28-7.16-.16-3.4-.24-6-.24-7.76 0-.4.16-.75.48-1.07.32-.32.7-.48 1.16-.48 1.52 0 2.84.12 3.96.35.53.11.88.3 1.04.56.16.24.21.66.16 1.24a2.12 2.12 0 0 1-1.76.29c-.24-.06-.88-.11-1.92-.17h-.08c-.37 0-.56.2-.56.6-.13 3.87-.2 6.07-.2 6.6a370.84 370.84 0 0 0 .2 7.64 59.72 59.72 0 0 0-.12 3.89c0 2.2.04 3.76.12 4.63-.03.6-.12 1-.28 1.2-.16.25-.45.37-.88.37-.1 0-.4-.03-.88-.09ZM87.26 38.27c-.69 0-1.33-.22-1.92-.68a4.75 4.75 0 0 1-1.44-1.76 15.86 15.86 0 0 1-1.44-5.31 39.95 39.95 0 0 1-.36-5.25c0-.32.02-.58.04-.8v-.71c0-.14-.01-.2-.04-.2v-.72l.04-2.8c.03-.86.14-2.22.32-4.08.14-1.29.44-2.53.92-3.73.19-.53.43-.93.72-1.2.3-.29.63-.43 1-.43a6.7 6.7 0 0 1 5.04 2.2c.54.66.99 1.49 1.36 2.47.38.96.64 2 .8 3.09.16 1.12.24 2.3.24 3.55v.32c0 .83.02 1.58.04 2.25l.04 2.27c0 7.69-1.78 11.52-5.36 11.52Zm-.16-1.68c.48 0 .92-.18 1.32-.56.4-.4.71-.93.92-1.6.51-1.35.82-2.82.92-4.4.14-1.36.2-2.53.2-3.52 0-1.2-.09-2.77-.28-4.71a65.05 65.05 0 0 1-.24-4.6v-.72a4.3 4.3 0 0 0-1.04-2.64 2.84 2.84 0 0 0-2.28-1.13c-.9 0-1.5.52-1.8 1.56-.26.83-.4 1.9-.4 3.2 0 .51.02.94.04 1.29v1.07l-.08 1.85c-.05.55-.08 1.17-.08 1.84 0 1.43.04 2.86.12 4.28.11 2 .38 3.94.8 5.83.43 1.98 1.06 2.96 1.88 2.96ZM110.95 42.44a2.2 2.2 0 0 1-.48.08c-.32 0-.55-.2-.68-.6-.11-.33-.16-.73-.16-1.2l.04-2.77c0-.16-.02-.3-.04-.44l-.08-.4h-4.6c.26 0-.38.14-1.92.4-1.52.25-2.71.4-3.56.48l-1.8.16-2 .2v.88c.02.35.02.77 0 1.25v.2c0 .42-.11.74-.32.95-.22.22-.42.32-.6.32-.11 0-.27-.05-.48-.16a1.9 1.9 0 0 1-.8-1.44l-.12-2.91c-.06-1.04.37-1.56 1.28-1.56.5-.03.9-.16 1.2-.4.29-.24.64-.62 1.04-1.13.4-.53.7-1.12.92-1.76a24.68 24.68 0 0 0 1.2-5.36c.1-.96.24-2.33.4-4.12.24-2.8.36-5.6.36-8.43l-.04-2.24c0-.51.14-.92.44-1.24.29-.35.69-.52 1.2-.52.16 0 .28 0 .36.04 1.22.2 2.22.34 3 .4h.2c.34 0 .54-.07.6-.2.24-.32.53-.48.88-.48.24 0 .45.05.64.16.42.16.7.55.84 1.2l-.2 6.84a623.27 623.27 0 0 0 .12 12.71l.04 2.2c0 .22.01.42.04.6l.08.57c.53.05.93.08 1.2.08.21 0 .37-.02.48-.04.58-.09 1.1.06 1.56.44.48.34.72.8.72 1.35 0 .73-.06 1.8-.16 3.25 0 .37-.03.9-.08 1.6-.06.55-.3.9-.72 1.04Zm-11.52-6.36c1.49-.14 2.66-.26 3.52-.36a17.5 17.5 0 0 0 2.6-.6c.26-3.23.4-6.68.4-10.36 0-3.42-.14-7.17-.4-11.25a262 262 0 0 1-3.88-.2l-.04 1.88c-.22 4.11-.36 7.18-.44 9.2-.11 3.04-.63 6.03-1.56 8.96-.06.16-.18.56-.36 1.2a4.45 4.45 0 0 1-.76 1.6l.92-.07ZM122.22 37.88a2.6 2.6 0 0 1-1.36-.29c-.3-.18-.44-.53-.44-1.04 0-.8-.13-2.15-.4-4.07l-.16-.84-3.96-.6a47.8 47.8 0 0 0-.68 3.72c-.16 1.3-.41 2.17-.76 2.6a.95.95 0 0 1-.8.36c-.32 0-.61-.1-.88-.28a.95.95 0 0 1-.4-.77l.08-.2.04-.16c1.76-6.85 3.1-13.6 4-20.28l.04-.52c.03-.26.05-.63.08-1.12.08-.98.16-1.77.24-2.36.1-.58.27-1.02.48-1.31h1.36c.38 0 .7.09.96.27.27.16.4.4.4.72 0 2.03.28 5.04.84 9.04.53 4.11.8 7 .8 8.64 0 .16.07.58.2 1.25.13.6.2 1 .2 1.2 0 .18.14.98.4 2.4.24 1.27.36 2.1.36 2.48v.04c0 .58-.21.96-.64 1.12Zm-2.64-7.69a7.7 7.7 0 0 1-.12-1.48c0-2.4-.21-5.46-.64-9.2l-.4-4.16c-1.14 6.27-1.93 11-2.36 14.2.4.27 1.58.48 3.52.64Z"/></g></svg>