<svg xmlns="http://www.w3.org/2000/svg" width="32" height="32" fill="none"><path fill="#0F805D" d="M16 28a1 1 0 0 1-.6-.2.7.7 0 0 1-.3-.6v-1.9l-1 1a1 1 0 0 1-.7.2 1 1 0 0 1-.6-.2.7.7 0 0 1-.2-.6c0-.1 0-.3.2-.5l2.3-2v-5.9l-5.8 3-.8 2.7-.4.5a1 1 0 0 1-.7 0 .9.9 0 0 1-.5-.3.7.7 0 0 1 0-.6l.3-1.3-2 1a1 1 0 0 1-.6 0 .9.9 0 0 1-.5-.3.7.7 0 0 1 0-.6c0-.2.1-.3.3-.4l2-1-1.6-.3a1 1 0 0 1-.3-.2l-.2-.2v-.8l.3-.2a1 1 0 0 1 .7-.1l3.2.7 5.8-2.9-5.8-3-3.2.8a1 1 0 0 1-.7 0 .8.8 0 0 1-.4-.5l.1-.6.5-.4 1.6-.3-2-1a.8.8 0 0 1-.2-.2l-.2-.2a.7.7 0 0 1 .1-.6l.2-.2.3-.2a1 1 0 0 1 .7.1l2 1-.5-1.3a.7.7 0 0 1 0-.6l.3-.2.3-.2a1 1 0 0 1 .7.1l.2.2.2.3.8 2.8 5.8 2.9V8.8l-2.3-2-.2-.3a.7.7 0 0 1 0-.5l.2-.3.3-.1a1 1 0 0 1 1 .1l1 1v-2l.3-.5.6-.2c.2 0 .4 0 .6.2l.3.5v2l1-1 .7-.2c.2 0 .4 0 .6.2l.2.6c0 .1 0 .3-.2.5l-2.3 2v5.9l5.8-3 .8-2.7.4-.5h.7c.2 0 .4.1.5.3.1.2.2.4.1.6l-.4 1.3 2-1h.6c.2 0 .4.1.5.3v.6c0 .2-.1.3-.3.4l-2 1 1.6.3.5.4v.6c0 .2-.1.3-.3.4a1 1 0 0 1-.7.1l-3.1-.7-5.9 2.9 5.9 3 3.1-.8h.7l.4.5-.1.6-.5.4-1.5.3 1.9 1c.2 0 .3.2.4.4l-.1.6c-.1.2-.3.3-.5.3a1 1 0 0 1-.7 0l-1.9-1 .4 1.3a.7.7 0 0 1 0 .6l-.3.2-.3.2a1 1 0 0 1-.7-.1.8.8 0 0 1-.2-.2l-.2-.3-.8-2.8-5.8-2.9v5.9l2.3 2 .2.5c0 .2 0 .4-.2.6a1 1 0 0 1-.6.2 1 1 0 0 1-.6-.2l-1.1-1v2l-.3.5a1 1 0 0 1-.6.2Z"/></svg>