<svg xmlns="http://www.w3.org/2000/svg" width="228" height="32" fill="none"><path fill="#8E9892" fill-opacity=".7" d="M99.7 16.1V16v.1ZM90 29.5c.6-4.9 4-10.9 9.4-13.1-1.3 2.4-2 5.1-3.5 7.6a18.7 18.7 0 0 1-6 5.5Zm-18-1.8c-.5.8-3.2 4.3-3 2.2a19.1 19.1 0 0 1 8.2-13.3c-.8 1-1.1 2.3-1.5 3.4a44 44 0 0 1-3.8 7.7ZM64.8 5.3c-2-2.2 1.6-1 3.3-.6 2.7.7 5.3 1.8 7.7 3 3.6 2 7 4 9.4 6.9-8-1.3-15.7-3.9-20.4-9.3Zm23.8.7-2.5-2L84 1c5.2 1.5 9.7 3.6 13.7 6.5 3 2 4.8 5 7.6 7.1-4-1.4-7.3-3.3-10.9-5.3-2-1-3.8-2.1-5.6-3.3ZM46 28.8c-1.6 1.5-2 1.1-2-.7s1.1-3.6 2.3-5.2c2-2.6 5.2-4.6 8-6.7h.2C51.9 20.6 50 25 46 28.8Zm-15.5-9c-1.7 2.4-3.3 5-6.7 6 .7-4.5 5-7.9 10.1-9.5-1.5.9-2.6 2.4-3.4 3.5ZM2.3 15.4a37 37 0 0 1 17-.3h-3.2c-.4 0-.6.3-.5.5-4.6.6-9.3 1.8-13.3-.2ZM20 4.7c7.6.1 13.2 5.2 18.1 9.4-3.3-1.3-7-1.9-10-3.5-3.1-1.6-5.4-3.9-8-5.9Zm19.5-1.5a31 31 0 0 1 21 11.2C52.3 13 43 9.3 39.4 3.2Zm72.2 12h-4.8l-.1-.4c-3.5-3-6.3-6.5-10.4-9.2A47.4 47.4 0 0 0 83 0c-.4 0-.8.2-.6.5 1.9 3.6 5.4 6.1 9.4 8.4 3.5 2 7.6 5.1 12 6.2L86.7 15C85.3 12 82 10 79 8.4a42.3 42.3 0 0 0-15.6-5.3c-.3 0-.6.1-.6.4 1.1 3.5 5.3 6.1 9 8 2.2 1.2 5.2 2.6 8.3 3.3H61.5C59 7.5 47.4 3.4 38.6 2.3c-.3 0-.8.1-.6.5 3 5.7 11.5 10.4 19.5 12a4502.1 4502.1 0 0 0-17.7 0l-.7-.3c-5.3-5-11.6-11.2-20.7-10.7-.5 0-.8.5-.4.9 2.8 2 5.2 4.5 8.3 6.2 3.4 2 7.3 3.1 11.3 4l-15.3.2c-6.8-2.8-15-2.8-22-.4-.4.1-.4.7 0 1 2.5 1.6 5.7 1.8 8.9 1.7A56.5 56.5 0 0 0 22.1 16h10.2c-5.4 1.6-9.2 5.8-9.4 10.3 0 .2.3.4.6.3 2.9-.6 4.7-2.1 6.2-4l2.6-3.5c1-1.3 2.3-2 4-2.9l.2-.1H53c-6 3.6-11.7 8.6-10 14.8 0 .3.5.5.8.4 3-1 4.8-3.5 6.4-5.6 2.3-3 3.8-6.2 5.3-9.5h20.8a17 17 0 0 0-8.7 15.3c0 .3.3.5.6.5 2.9-.3 4.7-3.7 5.6-5.4 1.7-3.3 2.7-7.6 5.3-10.4 6.5 0 13 0 19.4-.2-6.5 1.8-10.1 10-10 14.6 0 .5.7.7 1.2.4 6.2-4 8.8-9 10.9-15l11-.3c.3 0 .3-.4 0-.4ZM128.2 16h.2v.1l-.2-.1Zm3.8 8c-1.5-2.5-2.2-5.2-3.6-7.7 5.6 2.3 8.9 8.3 9.5 13.2a18.7 18.7 0 0 1-6-5.5Zm20.2-4c-.4-1-.7-2.4-1.6-3.3a19.1 19.1 0 0 1 8.3 13.2c.2 2-2.5-1.4-3-2.2a44 44 0 0 1-3.7-7.7Zm-9.5-5.4c2.3-3 5.8-5 9.4-6.8 2.4-1.3 5-2.4 7.7-3.1 1.7-.4 5.3-1.6 3.3.6-4.7 5.4-12.5 8-20.4 9.3Zm-9-5.3c-3.6 2-6.9 4-10.9 5.3 2.8-2.2 4.7-5 7.6-7.1 4-2.9 8.5-5 13.7-6.4l-2.3 3-2.5 2a78.4 78.4 0 0 1-5.6 3.2Zm39.7 6.9h.1c2.9 2 6 4 8 6.7 1.3 1.6 2.4 3.4 2.4 5.2 0 1.8-.4 2.2-2 .7-4-3.8-5.8-8.2-8.5-12.6Zm20.6.1c5.2 1.6 9.4 5 10.1 9.4-3.4-1-5-3.5-6.7-5.9-.8-1.1-1.9-2.6-3.4-3.5Zm18.4-.7c0-.2 0-.5-.5-.5h-3.2a37 37 0 0 1 17 .3c-4 2-8.7.8-13.3.2Zm-12.3-5c-3.2 1.6-6.8 2.2-10.1 3.5 5-4.2 10.5-9.3 18-9.4-2.6 2-4.9 4.3-8 6Zm-32.5 3.8a31 31 0 0 1 21-11.2c-3.7 6-12.9 9.7-21 11.2Zm-51.2 1.3 10.9.3c2 6 4.7 11 11 15 .3.3 1 .1 1-.4.2-4.7-3.4-12.8-9.9-14.6l19.4.2c2.6 2.8 3.6 7.1 5.3 10.4 1 1.7 2.7 5.1 5.6 5.4.3 0 .6-.2.6-.5a17 17 0 0 0-8.7-15.3h20.8c1.5 3.3 3 6.5 5.3 9.5 1.6 2 3.3 4.6 6.4 5.6.3 0 .7-.1.8-.4 1.7-6.2-4-11.2-10-14.7a5929.5 5929.5 0 0 0 16.8 0c1.7.9 3 1.6 4 3 1 1 1.7 2.2 2.6 3.4 1.5 1.9 3.3 3.4 6.2 4 .3 0 .6-.1.6-.3-.2-4.5-4-8.7-9.4-10.3h10.2s0 .2.2.2c3.7 1 8.8 1.2 12.7 1.2 3.2.1 6.4 0 9-1.8.3-.2.3-.8-.2-.9-7-2.4-15.1-2.4-22 .4l-15.2-.2c4-.9 8-2 11.3-4 3-1.7 5.5-4.2 8.3-6.2.4-.4 0-.8-.4-.9-9.1-.5-15.4 5.8-20.7 10.7l-.7.3-.2.1h-17.6c8.1-1.7 16.7-6.4 19.6-12.1.2-.4-.3-.6-.6-.5-8.8 1.1-20.4 5.2-23 12.5H148c3.1-.7 6.1-2.1 8.3-3.2 3.7-2 7.9-4.6 9-8.1 0-.3-.3-.5-.6-.4-5.8.7-10.9 2.7-15.6 5.3-3 1.7-6.4 3.7-7.7 6.5L124 15c4.5-1.1 8.6-4.1 12.1-6.2 4-2.3 7.5-4.8 9.4-8.4.2-.3-.2-.6-.6-.5-4.7 1.3-9.5 3-13.3 5.6-4.1 2.7-6.9 6.1-10.4 9.2-.1.1-.1.3 0 .4h-5c-.3.1-.3.5 0 .5Z"/></svg>